<?xml version="1.0" encoding="utf-8"?>
<!-- Generator: Adobe Illustrator 25.4.1, SVG Export Plug-In . SVG Version: 6.00 Build 0)  -->
<svg version="1.1" id="Layer_1" xmlns="http://www.w3.org/2000/svg" xmlns:xlink="http://www.w3.org/1999/xlink" x="0px" y="0px"
	 viewBox="0 0 422.3 287.8" style="enable-background:new 0 0 422.3 287.8;" xml:space="preserve">
<style type="text/css">
	.st0{fill:#E9530D;}
	.st1{opacity:0;fill:none;}
</style>
<rect class="st0" width="422.3" height="287.8"/>
<g>
	<g>
		<path d="M93.8,80.4c1.5,0,1.7,0.4,2.6,5.5l0.8,4.4h3.6c-1.3-5-1.8-10.3-3.2-11.5c1.8-1.2,2.6-2.9,2.6-5.5c0-3.9-1.8-6.6-4.9-6.6
			h-5v23.6h3.5V80.4z M93.8,70.9h1c1.3,0,1.9,0.8,1.9,2.7c0,1.9-0.7,2.8-1.9,2.8h-1.1V70.9z"/>
		<rect x="82" y="66.8" width="3.5" height="23.6"/>
		<path d="M152.4,70.7c0.8,0,1.4,0.4,3,1.7v-4.4c-1.2-1-2.2-1.5-3.3-1.5c-2.5,0-4.4,2.6-4.4,6c0,5.7,4.8,8.3,4.8,11.8
			c0,1.1-0.6,2-1.4,2c-0.9,0-1.8-0.7-3.2-2.5v5.1c1.4,1.3,2.6,1.9,3.7,1.9c2.5,0,4.5-2.8,4.5-6.6c0-5.6-5-9-5-11.8
			C151,71.3,151.6,70.7,152.4,70.7z"/>
		<polygon points="70.3,79 70.3,79 74.7,90.4 78.6,90.4 73.8,78 77.6,66.8 74.1,66.8 70.3,78.2 70.3,78.2 70.3,66.8 66.8,66.8 
			66.8,90.4 70.3,90.4 		"/>
		<polygon points="81.9,106.3 81.9,117.1 85.5,117.1 85.5,106.3 89.3,93.5 85.6,93.5 83.7,100.8 81.4,93.5 77.7,93.5 		"/>
		<path d="M77,110.2c0-2.7-0.9-4.7-2.6-5.9c1.3-1,2.1-2.7,2.1-4.8c0-2.9-1.4-6-4.5-6h-5.2v23.6H72C75.1,117.1,77,113.9,77,110.2z
			 M70.2,97.4H71c1.4,0,2,0.9,2,2.8c0,1.9-0.7,2.9-2,2.9h-0.7V97.4z M70.2,113.3v-6.4h1.4c1.4,0,1.9,1.6,1.9,3.2
			c0,2-0.6,3.2-2.1,3.2H70.2z"/>
		<polygon points="93.8,93.5 90.7,93.5 90.7,117.1 94,117.1 94,102 94,102 97,111 97.7,111 100.7,102 100.8,102 100.8,117.1 
			104,117.1 104,93.5 100.9,93.5 97.4,103.2 		"/>
		<polygon points="136,76.5 136,76.5 140.4,90.4 143.4,90.4 143.4,66.8 140.1,66.8 140.1,80.1 140.1,80.1 135.9,66.8 132.7,66.8 
			132.7,90.4 136,90.4 		"/>
		<polygon points="128.5,86.3 122.9,86.3 122.9,80.4 127.9,80.4 127.9,76.4 122.9,76.4 122.9,70.9 128.3,70.9 128.3,66.8 
			119.4,66.8 119.4,90.4 128.5,90.4 		"/>
		<rect x="107.5" y="93.5" width="3.5" height="23.6"/>
		<path d="M136.5,117.4c2.6,0,6-2.9,6-12.1c0-8.8-3.2-12.1-6-12.1c-3,0-6,3.9-6,11.9C130.5,113.9,133.6,117.4,136.5,117.4z
			 M136.5,97.9c2.1,0,2.5,3.4,2.5,7.4c0,5.7-0.9,7.5-2.5,7.5c-1.9,0-2.5-2.8-2.5-7.5C134,100.7,134.6,97.9,136.5,97.9z"/>
		<path d="M113.9,99.2c0,5.7,4.8,8.3,4.8,11.8c0,1.1-0.6,2-1.4,2c-0.9,0-1.8-0.7-3.2-2.5v5.1c1.4,1.3,2.6,1.9,3.8,1.9
			c2.5,0,4.4-2.8,4.4-6.6c0-5.6-5-9-5-11.8c0-1,0.6-1.6,1.4-1.6c0.8,0,1.4,0.4,3,1.7v-4.4c-1.2-1-2.3-1.5-3.3-1.5
			C115.8,93.2,113.9,95.9,113.9,99.2z"/>
		<path d="M123.1,120.5c-0.2,0-0.3,0-0.7-0.2l0.2,4.3c0.7,0.3,1.2,0.5,1.7,0.5c1.5,0,3.7-1.5,3.7-8V93.5h-3.5v23.8
			C124.6,119.8,123.9,120.5,123.1,120.5z"/>
		<polygon points="107.7,79 107.7,79 112.1,90.4 116,90.4 111.2,78 115.1,66.8 111.6,66.8 107.7,78.2 107.7,78.2 107.7,66.8 
			104.2,66.8 104.2,90.4 107.7,90.4 		"/>
		<polygon points="148.3,103.2 148.3,103.2 152.7,117.1 155.7,117.1 155.7,93.5 152.4,93.5 152.4,106.9 152.4,106.9 148.2,93.5 
			145,93.5 145,117.1 148.3,117.1 		"/>
		<path d="M151.4,149.3l-2.9,4.4v-14.8h-6.9v9.1l-5.9,0l-2.1-13.2l-2.6,10.9h-3.5v-11.7l-19.9,0v6.6H97l0,9.4h-4.6l-2.5-25.5
			l-3,31.3l-3.7,0l0-5.6l-5.5-3.1l-6.2,3V145h-4.6v76.1h88.9V156L151.4,149.3z M98,179H94v-5.5H98V179z M98,171.5H94V166H98V171.5z
			 M104.7,179h-4v-5.5h4V179z M104.7,171.5h-4V166h4V171.5z M111.3,208.9h-4v-5.5h4V208.9z M111.3,201.4h-4v-5.5h4V201.4z
			 M111.3,193.9h-4v-5.5h4V193.9z M111.3,186.4h-4v-5.5h4V186.4z M111.3,179h-4v-5.5h4V179z M111.3,171.5h-4V166h4V171.5z
			 M111.3,164h-4v-5.5h4V164z M111.3,156.5h-4V151h4V156.5z M118,208.9h-4v-5.5h4V208.9z M118,201.4h-4v-5.5h4V201.4z M118,193.9h-4
			v-5.5h4V193.9z M118,186.4h-4v-5.5h4V186.4z M118,179h-4v-5.5h4V179z M118,171.5h-4V166h4V171.5z M118,164h-4v-5.5h4V164z
			 M118,156.5h-4V151h4V156.5z M124.6,179h-4v-5.5h4V179z M124.6,171.5h-4V166h4V171.5z M131.3,179h-3.9v-5.5h3.9V179z M131.3,171.5
			h-3.9V166h3.9V171.5z"/>
	</g>
	<rect class="st1" width="444" height="287.8"/>
</g>
</svg>
